<svg width="48" height="48" viewBox="0 0 48 48" fill="none" xmlns="http://www.w3.org/2000/svg">
<rect width="28" height="28" rx="14" transform="matrix(-1 0 0 1 38 10)" fill="#DD3136"/>
<path d="M31.4187 24.0059C31.4187 23.5463 31.0475 23.1751 30.5879 23.1751L24.8309 23.1692L24.8309 17.4063C24.8309 16.9467 24.4596 16.5754 24 16.5754C23.5404 16.5754 23.1691 16.9467 23.1691 17.4063L23.1691 23.1692L17.4062 23.1692C16.9466 23.1692 16.5754 23.5404 16.5754 24C16.5754 24.4597 16.9466 24.8309 17.4062 24.8309L23.1691 24.8309L23.1691 30.5938C23.1691 31.0534 23.5404 31.4247 24 31.4247C24.4596 31.4247 24.8309 31.0534 24.8309 30.5938L24.8309 24.8309L30.5938 24.8309C31.0416 24.8309 31.4187 24.4538 31.4187 24.0059Z" fill="white"/>
</svg>
